# xmcd
#
# Track frame offsets:
# 150
# 18319
# 34153
# 52293
# 71461
# 99657
# 120318
# 143397
# 164083
# 184148
# 204378
# 221526
# 256589
# 279589
# 312491
#
# Disc length: 4663 seconds
#
# Revision: 0
# Processed by: cddbd v1.5.2PL0 Copyright (c) Steve Scherf et al.
# Submitted via: CoinsHifi v1.9h contact@coinshifi.com
#
DISCID=d812350f
DTITLE=Variété and Ismael Isaac and Kriss B. and Gadji CELI - Variétés Musicale
DYEAR=2004
DGENRE=Reggae
TTITLE0=Alpha Blondy -Hypocrite
TTITLE1=Alpha Blondy-Les chiens aboient
TTITLE2=IsmäelIsaac-Korodjo
TTITLE3=Kriss B.-Champion d'Afrique
TTITLE4=Gadji Celi-Paparazzi
TTITLE5=T.V 5-Gos Schawarma
TTITLE6=Ericksson le Zoulou-Jonathan
TTITLE7=Ericksson le Zoulou-La galère
TTITLE8=Don Mike le Gourou-Prudencia
TTITLE9=Woya-Gbokolo
TTITLE10=Allan DJ-Yoyoyo
TTITLE11=Bilé Didier-Gboglo Koffi
TTITLE12=Alain Demarri-Na wenve
TTITLE13=Ahiwo Orchestra-Allocoua Kouté
TTITLE14=Ahiwo Orchestra-Ahiwo ça ment pas
EXTD=
EXTT0=Instrumental
EXTT1=Instrumental
EXTT2=Instrumental
EXTT3=Instrumental
EXTT4=Instrumental
EXTT5=Instrumental
EXTT6=Instrumental
EXTT7=Instrumental
EXTT8=Instrumental
EXTT9=Instrumental
EXTT10=Instrumental
EXTT11=Instrumental
EXTT12=Instrumental
EXTT13=Instrumental
EXTT14=Instrumental
PLAYORDER=
